<svg width="50" height="50" viewBox="0 0 50 50" fill="none" xmlns="http://www.w3.org/2000/svg">
<path d="M29.0842 26.5315C27.8172 27.2665 26.3925 27.634 24.9679 27.634C23.5432 27.634 22.1653 27.2784 20.9158 26.5671L1 15.2578V35.9559C1 38.7417 3.22455 41 5.96874 41H44.0313C46.7755 41 49 38.7417 49 35.9559V15.2489C49 15.166 48.9912 15.083 48.9883 15L29.0842 26.5315Z" fill="#51E570"/>
<path d="M22.668 23.378C24.1496 24.2152 25.9867 24.2063 27.4624 23.3571L48 11.531C47.0844 10.5891 45.8102 10 44.3998 10H5.76321C4.26385 10 2.9245 10.6638 2 11.7104L22.668 23.378Z" fill="#51E570"/>
</svg>
