<?xml version="1.0" encoding="UTF-8"?><svg id="m" xmlns="http://www.w3.org/2000/svg" xmlns:xlink="http://www.w3.org/1999/xlink" viewBox="0 0 1080 755.74"><defs><linearGradient id="n" x1="48.76" y1="251.45" x2="1055.65" y2="516.88" gradientUnits="userSpaceOnUse"><stop offset="0" stop-color="#44eef2"/><stop offset=".22" stop-color="#46ecda"/><stop offset=".68" stop-color="#4ce89d"/><stop offset="1" stop-color="#51e570"/></linearGradient></defs><path d="M1031.53,310.75L775.6,54.83c-.3-.29-.6-.57-.9-.86-12.21-12.66-29.39-20.85-49.4-20.85H354.61c-19.02,0-35.46,7.41-47.53,19.01-.93,.82-1.84,1.66-2.73,2.54L48.43,310.6c-18.63,18.63-29.09,43.89-29.09,70.23s10.46,51.61,29.09,70.23l256.15,256.15c.99,1.06,2.01,2.08,3.07,3.07l.19,.19s.08,.07,.12,.11c.44,.41,.88,.8,1.33,1.2,.84,.77,1.7,1.51,2.59,2.2,11.48,9.14,26.14,14.78,42.74,14.78h370.69c14.95,0,28.33-4.57,39.22-12.16,2.7-1.67,5.26-3.63,7.6-5.97l259.41-259.41c18.63-18.63,29.09-43.89,29.09-70.23s-10.46-51.61-29.09-70.23Zm-742.9,40.58l82.68-82.68,16.33,28.29,32.34,56.01c10,17.32,10,38.65,0,55.97l-32.34,56.01-16.26,28.16-82.75-82.75c-16.3-16.3-16.3-42.71,0-59.01Zm502.7,59.16l-82.73,82.73-16.33-28.29-32.34-56.01c-10-17.32-10-38.65,0-55.97l32.34-56.01,16.3-28.22,82.76,82.76c16.3,16.3,16.3,42.71,0,59.01Z" style="fill:url(#n);"/><path d="M307.88,710.47L48.47,451.07c-18.63-18.63-29.09-43.89-29.09-70.23s10.46-51.61,29.09-70.23L304.4,54.68m68.86,212.07l-84.58,84.58c-16.3,16.3-16.3,42.71,0,59.01l84.47,84.47m399.02,215.81l259.41-259.41c18.63-18.63,29.09-43.89,29.09-70.23,0-26.34-10.46-51.61-29.09-70.23L775.65,54.83m-70.3,441.68l86.02-86.02c16.3-16.3,16.3-42.71,0-59.01l-82.76-82.76m-48.63,140.2c-10-17.32-10-38.65,0-55.97l32.34-56.01,92.67-160.51c26.51-45.91-6.63-103.31-59.64-103.31H354.66c-53.02,0-86.15,57.39-59.64,103.31l92.67,160.51,32.34,56.01c10,17.32,10,38.65,0,55.97l-32.34,56.01-92.67,160.51c-26.51,45.91,6.63,103.31,59.64,103.31h370.69c53.02,0,86.15-57.39,59.64-103.31l-92.67-160.51-32.34-56.01Z" style="fill:none; stroke:#030f21; stroke-miterlimit:10; stroke-width:26px;"/></svg>