<svg width="245" height="167" viewBox="0 0 245 167" fill="none" xmlns="http://www.w3.org/2000/svg">
<g clip-path="url(#clip0_22_1489)">
<path d="M232.444 67.6472L175.025 10.2285C174.959 10.1626 174.889 10.1008 174.823 10.0348C172.083 7.19541 168.23 5.35742 163.738 5.35742H80.5708C76.3013 5.35742 72.613 7.02233 69.9055 9.62271C69.6953 9.80816 69.4934 9.99361 69.2914 10.1955L11.8728 67.6142C7.69401 71.793 5.34501 77.4594 5.34501 83.3731C5.34501 89.2868 7.69401 94.9533 11.8728 99.132L69.345 156.6C69.5675 156.835 69.7983 157.066 70.0332 157.288L70.0744 157.33C70.0744 157.33 70.0909 157.346 70.0992 157.354C70.1981 157.445 70.297 157.536 70.3959 157.622C70.5854 157.795 70.7791 157.96 70.9769 158.117C73.5526 160.169 76.8412 161.43 80.5666 161.43H163.734C167.088 161.43 170.088 160.404 172.532 158.702C173.138 158.327 173.711 157.886 174.238 157.363L232.44 99.1609C236.619 94.9821 238.968 89.3157 238.968 83.402C238.968 77.4883 236.619 71.8218 232.44 67.6431L232.444 67.6472ZM65.7638 76.7506L84.3127 58.2017L87.9763 64.5481L95.2335 77.1132C97.4753 80.9994 97.4753 85.7839 95.2335 89.6701L87.9763 102.235L84.3292 108.553L65.7638 89.9874C62.1084 86.332 62.1084 80.4018 65.7638 76.7465V76.7506ZM178.549 90.0245L159.988 108.586L156.324 102.239L149.067 89.6742C146.825 85.7881 146.825 81.0035 149.067 77.1174L156.324 64.5523L159.979 58.2182L178.549 76.7877C182.204 80.4431 182.204 86.3733 178.549 90.0286V90.0245Z" fill="url(#paint0_linear_22_1489)"/>
<path d="M70.0868 157.329L11.8851 99.1277C7.70638 94.9489 5.35738 89.2825 5.35738 83.3688C5.35738 77.4551 7.70638 71.7886 11.8851 67.6099L69.3038 10.1912M84.7536 57.7729L65.7762 76.7504C62.1208 80.4057 62.1208 86.3359 65.7762 89.9913L84.7289 108.944M174.255 157.366L232.456 99.1648C236.635 94.986 238.984 89.3196 238.984 83.4059C238.984 77.4963 236.635 71.8257 232.456 67.647L175.038 10.2283M159.266 109.327L178.565 90.0284C182.221 86.373 182.221 80.4428 178.565 76.7875L159.996 58.218M149.083 89.674C146.841 85.7878 146.841 81.0033 149.083 77.1171L156.34 64.552L177.131 28.5381C183.078 18.2355 175.644 5.36133 163.75 5.36133H80.579C68.6856 5.36133 61.2512 18.2396 67.1979 28.5381L87.9887 64.552L95.2458 77.1171C97.4877 81.0033 97.4877 85.7878 95.2458 89.674L87.9887 102.239L67.1979 138.253C61.2512 148.556 68.6856 161.43 80.579 161.43H163.746C175.639 161.43 183.074 148.552 177.127 138.253L156.336 102.239L149.079 89.674H149.083Z" stroke="#030F21" stroke-width="10.7147" stroke-miterlimit="10" stroke-linejoin="round"/>
</g>
<defs>
<linearGradient id="paint0_linear_22_1489" x1="11.9511" y1="54.3403" x2="237.855" y2="113.894" gradientUnits="userSpaceOnUse">
<stop stop-color="#44EEF2"/>
<stop offset="0.22" stop-color="#46ECDA"/>
<stop offset="0.68" stop-color="#4CE89D"/>
<stop offset="1" stop-color="#51E570"/>
</linearGradient>
<clipPath id="clip0_22_1489">
<rect width="244.341" height="166.787" fill="white"/>
</clipPath>
</defs>
</svg>
