<svg width="42" height="42" viewBox="0 0 42 42" fill="none" xmlns="http://www.w3.org/2000/svg">
<path fill-rule="evenodd" clip-rule="evenodd" d="M37.1867 7.32176C38.9718 7.79891 40.3779 9.20501 40.855 10.9901C41.7222 14.2255 41.7222 20.9766 41.7222 20.9766C41.7222 20.9766 41.7222 27.7277 40.855 30.9631C40.3779 32.7482 38.9718 34.1543 37.1867 34.6314C33.9513 35.4986 20.9765 35.4986 20.9765 35.4986C20.9765 35.4986 8.00165 35.4986 4.76625 34.6314C2.98119 34.1543 1.5751 32.7482 1.09794 30.9631C0.230774 27.7277 0.230774 20.9766 0.230774 20.9766C0.230774 20.9766 0.230774 14.2255 1.09794 10.9901C1.5751 9.20501 2.98119 7.79891 4.76625 7.32176C8.00165 6.45459 20.9765 6.45459 20.9765 6.45459C20.9765 6.45459 33.9513 6.45459 37.1867 7.32176ZM27.6059 20.9766L16.8273 27.2004V14.7529L27.6059 20.9766Z" fill="#51E570"/>
</svg>
